<?xml version="1.0" encoding="UTF-8" standalone="no"?><!DOCTYPE svg PUBLIC "-//W3C//DTD SVG 1.1//EN" "http://www.w3.org/Graphics/SVG/1.1/DTD/svg11.dtd"><svg width="100%" height="100%" viewBox="0 0 400 400" version="1.1" xmlns="http://www.w3.org/2000/svg" xmlns:xlink="http://www.w3.org/1999/xlink" xml:space="preserve" xmlns:serif="http://www.serif.com/" style="fill-rule:evenodd;clip-rule:evenodd;stroke-linejoin:round;stroke-miterlimit:2;"><g id="Layer-1" serif:id="Layer 1"><path d="M199.846,34.128c-5.45,-0 -10.819,0.35 -16.091,1.02c-3.01,0.39 -5.978,0.89 -8.91,1.48c-18.479,3.75 -35.47,11.57 -50,22.49c-9.468,7.11 -17.899,15.54 -25.008,25.01c-10.921,14.53 -18.741,31.52 -22.49,50c-1.641,8.08 -2.501,16.44 -2.501,25c-0,13.81 11.19,25 25.001,25c13.809,-0 24.998,-11.19 24.998,-25c0,-8.77 1.511,-17.18 4.271,-25c7.53,-21.31 24.42,-38.2 45.729,-45.73c7.82,-2.76 16.23,-4.27 25,-4.27l54.271,-0c7.19,-0 14.149,-1.009 20.729,-2.909c5.891,-1.681 11.481,-4.071 16.67,-7.071c15.39,-8.87 27.33,-23.04 33.331,-40.02l-125.001,-0Zm-22.12,89.724c-5.799,7.261 -6.232,15.258 -5.974,19.379c0.311,4.961 4.593,8.725 9.546,8.419c4.96,-0.311 8.73,-4.584 8.418,-9.546c-0.076,-1.232 -0.029,-4.383 2.074,-7.017c2.2,-2.754 5.98,-4.108 9.612,-3.459c4.346,0.781 8.017,4.732 8.54,9.191c0.449,3.831 -1.676,6.987 -2.433,7.972l-46.191,55.991l58.528,-0c4.971,-0 9,-4.029 9,-9c0,-4.97 -4.029,-9 -9,-9l-20.344,-0l22.115,-26.812c2.274,-2.899 7.431,-10.774 6.202,-21.248c-1.456,-12.414 -11.012,-22.617 -23.238,-24.81c-1.629,-0.292 -3.269,-0.435 -4.904,-0.435c-8.447,0.001 -16.701,3.805 -21.951,10.375Zm97.12,35.276c0,8.77 -1.509,17.18 -4.269,25c-7.531,21.31 -24.421,38.2 -45.73,45.73c-7.82,2.76 -16.231,4.269 -25.001,4.27l-54.269,-0c-7.191,-0 -14.15,1.01 -20.731,2.91c-5.889,1.68 -11.48,4.07 -16.67,7.07c-15.39,8.87 -27.329,23.04 -33.33,40.02l125,-0c5.451,-0 10.82,-0.35 16.09,-1.02c3.01,-0.39 5.98,-0.89 8.912,-1.48c18.478,-3.75 35.468,-11.57 49.998,-22.49c9.47,-7.11 17.9,-15.54 25.01,-25.01c10.921,-14.53 18.74,-31.52 22.49,-50c1.64,-8.08 2.501,-16.44 2.501,-25c0,-13.81 -11.191,-25 -25.001,-25c-13.81,-0 -25,11.19 -25,25Z" style="fill:url(#_Linear1);fill-rule:nonzero;"/><path d="M228.215,348.276c-0.845,-1.529 -1.999,-2.69 -3.461,-3.481c-1.463,-0.791 -3.119,-1.188 -4.971,-1.188c-1.77,0 -3.367,0.389 -4.789,1.168c-0.775,0.424 -1.457,0.932 -2.053,1.519l-0,-0.433c-0,-0.617 -0.188,-1.113 -0.563,-1.489c-0.376,-0.376 -0.872,-0.563 -1.489,-0.563c-0.591,0 -1.08,0.187 -1.469,0.563c-0.389,0.376 -0.584,0.872 -0.584,1.489l-0,17.95c-0,0.591 0.195,1.08 0.584,1.469c0.389,0.389 0.878,0.584 1.469,0.584c0.617,0 1.113,-0.195 1.489,-0.584c0.375,-0.389 0.563,-0.878 0.563,-1.469l-0,-11.349c-0,-0.993 0.268,-1.872 0.805,-2.637c0.537,-0.764 1.261,-1.374 2.174,-1.831c0.912,-0.456 1.931,-0.684 3.058,-0.684c1.234,0 2.328,0.235 3.28,0.704c0.953,0.47 1.711,1.188 2.274,2.154c0.564,0.965 0.846,2.213 0.846,3.742l-0,9.901c-0,0.591 0.194,1.08 0.583,1.469c0.389,0.389 0.879,0.584 1.469,0.584c0.59,0 1.08,-0.195 1.469,-0.584c0.389,-0.389 0.584,-0.878 0.584,-1.469l-0,-9.901c-0,-2.226 -0.423,-4.105 -1.268,-5.634" style="fill:#2e124c;fill-rule:nonzero;"/><path d="M301.152,344.385c-0.792,-0.523 -1.992,-0.785 -3.602,-0.785c-1.61,-0 -3.086,0.376 -4.427,1.127c-0.904,0.506 -1.68,1.134 -2.334,1.878l-0,-0.751c-0,-0.67 -0.168,-1.173 -0.504,-1.509c-0.335,-0.335 -0.838,-0.503 -1.509,-0.503c-0.644,-0 -1.141,0.175 -1.489,0.523c-0.349,0.349 -0.523,0.845 -0.523,1.489l-0,17.99c-0,0.671 0.174,1.174 0.523,1.509c0.348,0.336 0.845,0.503 1.489,0.503c0.671,-0 1.174,-0.174 1.509,-0.523c0.336,-0.348 0.504,-0.845 0.504,-1.489l-0,-11.752c-0,-1.234 0.395,-2.254 1.187,-3.059c0.791,-0.804 1.871,-1.354 3.24,-1.65c1.368,-0.295 2.91,-0.268 4.628,0.081c0.348,0.08 0.67,0.094 0.966,0.04c0.295,-0.053 0.556,-0.181 0.785,-0.382c0.227,-0.201 0.382,-0.49 0.462,-0.865c0.188,-0.725 -0.114,-1.349 -0.905,-1.872" style="fill:#2e124c;fill-rule:nonzero;"/><path d="M192.413,361.752c-3.851,-0 -6.983,-3.133 -6.983,-6.983c-0,-3.851 3.132,-6.984 6.983,-6.984c3.846,-0 6.976,3.126 6.983,6.97l-0,0.027c-0.007,3.844 -3.137,6.97 -6.983,6.97m11.088,-6.983l-0,-0.302c-0,-0.076 -0.005,-0.151 -0.013,-0.225c-0.276,-5.879 -5.128,-10.561 -11.075,-10.561c-6.124,-0 -11.088,4.964 -11.088,11.088c-0,6.123 4.964,11.088 11.088,11.088c2.647,-0 5.076,-0.929 6.983,-2.477l-0,0.424c-0,1.134 0.919,2.053 2.052,2.053c1.134,-0 2.053,-0.919 2.053,-2.053l-0,-9.035" style="fill:#2e124c;fill-rule:nonzero;"/><path d="M244.47,361.752c-3.851,-0 -6.983,-3.133 -6.983,-6.983c0,-3.851 3.132,-6.984 6.983,-6.984c3.846,-0 6.975,3.125 6.983,6.969l0,0.029c-0.008,3.844 -3.137,6.969 -6.983,6.969m11.087,-6.972c0,-0.004 0.001,-0.008 0.001,-0.011c0,-0.004 -0.001,-0.008 -0.001,-0.011l0,-18.272c0,-1.133 -0.918,-2.052 -2.052,-2.052c-1.133,-0 -2.052,0.919 -2.052,2.052l0,9.672c-1.907,-1.548 -4.336,-2.477 -6.983,-2.477c-6.124,-0 -11.088,4.964 -11.088,11.088c0,6.123 4.964,11.088 11.088,11.088c5.947,-0 10.799,-4.682 11.074,-10.561c0.009,-0.074 0.013,-0.149 0.013,-0.226l0,-0.29Z" style="fill:#2e124c;fill-rule:nonzero;"/><path d="M313.404,361.752c-3.851,-0 -6.983,-3.133 -6.983,-6.983c0,-3.851 3.132,-6.984 6.983,-6.984c3.846,-0 6.975,3.125 6.983,6.969l0,0.029c-0.008,3.844 -3.137,6.969 -6.983,6.969m11.087,-6.972c0,-0.004 0.001,-0.008 0.001,-0.011c0,-0.004 -0.001,-0.008 -0.001,-0.011l0,-18.272c0,-1.133 -0.918,-2.052 -2.052,-2.052c-1.133,-0 -2.052,0.919 -2.052,2.052l0,9.672c-1.907,-1.548 -4.336,-2.477 -6.983,-2.477c-6.124,-0 -11.088,4.964 -11.088,11.088c0,6.123 4.964,11.088 11.088,11.088c5.947,-0 10.799,-4.682 11.074,-10.561c0.009,-0.074 0.013,-0.149 0.013,-0.226l0,-0.29Z" style="fill:#2e124c;fill-rule:nonzero;"/><path d="M270.75,361.752c-3.851,-0 -6.983,-3.133 -6.983,-6.983c0,-3.851 3.132,-6.984 6.983,-6.984c3.846,-0 6.975,3.126 6.983,6.97l0,0.027c-0.008,3.845 -3.137,6.97 -6.983,6.97m11.088,-6.983l0,-0.302c0,-0.076 -0.005,-0.152 -0.014,-0.226c-0.275,-5.879 -5.127,-10.56 -11.074,-10.56c-6.124,-0 -11.088,4.964 -11.088,11.088c0,6.123 4.964,11.088 11.088,11.088c2.647,-0 5.076,-0.93 6.983,-2.477l0,0.424c0,1.134 0.919,2.053 2.052,2.053c1.134,-0 2.053,-0.919 2.053,-2.053l0,-9.035" style="fill:#2e124c;fill-rule:nonzero;"/><path d="M177.015,361.752l-1.885,-0c-0.982,-0 -1.604,-0.329 -2.017,-1.066c-0.356,-0.636 -0.43,-1.335 -0.441,-1.452l-0,-11.449l3.192,-0c1.134,-0 2.052,-0.918 2.052,-2.052c-0,-1.133 -0.918,-2.052 -2.052,-2.052l-3.192,-0l-0,-7.333c-0,-1.134 -0.919,-2.052 -2.052,-2.052c-1.133,-0 -2.052,0.918 -2.052,2.052l-0,22.946l0.001,0.078c0.098,2.606 1.926,6.485 6.561,6.485l1.885,-0c1.133,-0 2.052,-0.919 2.052,-2.053c-0,-1.133 -0.919,-2.052 -2.052,-2.052" style="fill:#2e124c;fill-rule:nonzero;"/><path d="M119.37,365.84l-19.206,0l15.605,-18.916c0.447,-0.575 1.424,-2.077 1.199,-3.992c-0.267,-2.278 -2.079,-4.221 -4.308,-4.621c-1.847,-0.331 -3.771,0.369 -4.901,1.784c-1.083,1.356 -1.109,2.942 -1.07,3.561c0.071,1.131 -0.789,2.105 -1.92,2.177c-1.13,0.068 -2.106,-0.789 -2.177,-1.92c-0.069,-1.094 -0.015,-3.907 1.96,-6.38c2.057,-2.575 5.525,-3.856 8.833,-3.262c4.029,0.723 7.179,4.088 7.66,8.183c0.405,3.452 -1.306,6.061 -2.061,7.022l-0.031,0.039l-10.081,12.22l10.498,0c1.133,0 2.052,0.919 2.052,2.053c-0,1.133 -0.919,2.052 -2.052,2.052" style="fill:#2e124c;fill-rule:nonzero;"/><path d="M87.267,365.872c-3.394,0 -7.333,-1.129 -11.363,-3.361c-0.992,-0.549 -1.35,-1.798 -0.801,-2.79c0.549,-0.991 1.798,-1.35 2.79,-0.801c5.618,3.112 11.123,3.733 13.699,1.542l0.018,-0.015c0.462,-0.392 1.542,-1.311 1.681,-2.564c0.139,-1.256 -0.713,-2.389 -0.993,-2.762c-1.479,-1.968 -3.798,-2.375 -6.484,-2.847c-2.987,-0.525 -6.374,-1.12 -8.489,-4.264c-0.211,-0.314 -2.034,-3.157 -1.264,-6.491c1.028,-4.445 6.133,-7.144 10.476,-7.186l0.106,0c5.069,0 8.375,3.471 9.272,4.542c0.729,0.868 0.614,2.163 -0.254,2.891c-0.869,0.728 -2.163,0.614 -2.891,-0.255c-0.607,-0.724 -2.835,-3.074 -6.127,-3.074c-0.023,0 -0.044,0 -0.067,0.001c-3.351,0.032 -6.074,2.097 -6.516,4.005c-0.38,1.648 0.664,3.265 0.675,3.281c1.081,1.608 2.904,2 5.79,2.507c3.094,0.544 6.6,1.16 9.054,4.424c1.399,1.862 2.002,3.772 1.792,5.679c-0.318,2.873 -2.414,4.655 -3.102,5.24l-0.018,0.015c-1.796,1.527 -4.208,2.283 -6.984,2.283" style="fill:#2e124c;fill-rule:nonzero;"/><path d="M154.319,365.872c-3.394,0 -7.333,-1.129 -11.363,-3.361c-0.992,-0.549 -1.35,-1.798 -0.801,-2.79c0.549,-0.991 1.798,-1.35 2.789,-0.801c5.619,3.112 11.124,3.732 13.7,1.542l0.018,-0.015c0.462,-0.392 1.542,-1.311 1.681,-2.564c0.138,-1.257 -0.713,-2.389 -0.993,-2.761c-1.479,-1.969 -3.799,-2.376 -6.484,-2.848c-2.987,-0.525 -6.374,-1.12 -8.489,-4.264c-0.211,-0.314 -2.034,-3.157 -1.264,-6.491c1.028,-4.445 6.133,-7.144 10.476,-7.186l0.106,0c5.069,0 8.375,3.471 9.272,4.542c0.728,0.868 0.614,2.163 -0.254,2.891c-0.869,0.728 -2.163,0.614 -2.891,-0.255c-0.612,-0.729 -2.858,-3.106 -6.194,-3.073c-3.351,0.032 -6.074,2.097 -6.516,4.005c-0.38,1.648 0.664,3.265 0.675,3.281c1.081,1.608 2.904,2 5.789,2.507c3.094,0.544 6.601,1.16 9.055,4.424c1.399,1.861 2.002,3.771 1.791,5.679c-0.317,2.873 -2.413,4.655 -3.101,5.24l-0.018,0.015c-1.796,1.527 -4.208,2.283 -6.984,2.283" style="fill:#2e124c;fill-rule:nonzero;"/></g><defs><linearGradient id="_Linear1" x1="0" y1="0" x2="1" y2="0" gradientUnits="userSpaceOnUse" gradientTransform="matrix(249.3,-249.3,249.3,249.3,75.4872,283.486)"><stop offset="0" style="stop-color:#2d134b;stop-opacity:1"/><stop offset="0" style="stop-color:#2d134b;stop-opacity:1"/><stop offset="0.37" style="stop-color:#192665;stop-opacity:1"/><stop offset="1" style="stop-color:#1158a3;stop-opacity:1"/><stop offset="1" style="stop-color:#1158a3;stop-opacity:1"/></linearGradient></defs></svg>